# xmcd
#
# Track frame offsets:
#   150
#   11325
#   21150
#   34500
#   43775
#   55675
#   66662
#   77550
#   87325
#   100325
#   112500
#   124050
#   138387
#   151150
#
# Disc length: 2137 seconds
#
# Revision: 0
# Processed by: cddbd v1.5PL3 Copyright (c) Steve Scherf et al.
# Submitted via: Media_Universe 3.0
#
DISCID=a608570e
DTITLE=Various Artist - Country Heroes Vol:2
DYEAR=1900
DGENRE=Country
TTITLE0=Send Me The Pillow You Dream On
TTITLE1=Six Days On The Road
TTITLE2=Rose Garden
TTITLE3=Rawhide
TTITLE4=Walkin' After Midnight
TTITLE5=Always Leavin', Always Gone
TTITLE6=I  Feel Sorry For Him
TTITLE7=Last Days In The Mines
TTITLE8=Moonlight Gambler
TTITLE9=Don't Think Twice
TTITLE10=The Heart You Break May Be Your Own
TTITLE11=Open Pit Mine
TTITLE12=If I Don't Understand
TTITLE13=Please Don't Let That Woman Get Me
EXTD=
EXTT0=
EXTT1=
EXTT2=
EXTT3=
EXTT4=
EXTT5=
EXTT6=
EXTT7=
EXTT8=
EXTT9=
EXTT10=
EXTT11=
EXTT12=
EXTT13=
PLAYORDER=
